<svg width="300" height="300" xmlns="http://www.w3.org/2000/svg">

 <g>
  <title>background</title>
  <rect fill="none" id="canvas_background" height="402" width="582" y="-1" x="-1"/>
 </g>
 <g>
  <title>Layer 1</title>
  <path id="svg_2" fill="#14cdfc" d="m151.338,14.8c-74.557,0 -134.996,60.44 -134.996,135.002c0,74.554 60.439,134.998 134.996,134.998c74.556,0 135.004,-60.443 135.004,-134.998c0,-74.561 -60.448,-135.002 -135.004,-135.002zm0,250.914c-64.013,0 -115.908,-51.901 -115.908,-115.912c0,-64.018 51.895,-115.911 115.908,-115.911c64.016,0 115.909,51.894 115.909,115.911c0,64.011 -51.893,115.912 -115.909,115.912z"/>
  <circle id="svg_3" r="104.428" fill="#14a7cc" cy="149.802" cx="151.341"/>
  <polygon transform="rotate(-44.715553283691406 151.33850097656256,149.79998779296878) " id="svg_4" points="213.878,180.6 182.131,212.344 151.338,181.547 120.541,212.344 88.799,180.6 119.586,149.802    88.799,119.013 120.541,87.256 151.338,118.058 182.131,87.256 213.878,119.013 183.077,149.802  " fill="#FFFFFF"/>
 </g>
</svg>