<svg width="32" height="32" xmlns="http://www.w3.org/2000/svg">

 <g>
  <title>background</title>
  <rect fill="none" id="canvas_background" height="402" width="582" y="-1" x="-1"/>
 </g>
 <g>
  <title>Layer 1</title>
  <path stroke="null" fill="#ffffff" id="svg_1" d="m13.00892,17.201105l-5.869229,0c-1.079938,0 -1.95641,0.871146 -1.95641,1.944522s0.876472,1.944522 1.95641,1.944522l1.173846,0l-4.499743,4.473372c-0.313026,0.311123 -0.586923,0.72239 -0.586923,1.360193c0,1.063653 0.840278,1.944522 1.95641,1.944522c0.627029,0 1.026137,-0.241121 1.369487,-0.583356l4.499743,-4.4724l0,1.166713c0,1.073376 0.876472,1.944522 1.95641,1.944522s1.95641,-0.871146 1.95641,-1.944522l0,-5.833565c0,-1.073376 -0.876472,-1.944522 -1.95641,-1.944522zm-15.651278,15.556172c-0.627029,0 -1.026137,0.241121 -1.369487,0.583356l-4.499743,4.4724l0,-1.166713c0,-1.073376 -0.876472,-1.944522 -1.95641,-1.944522s-1.95641,0.871146 -1.95641,1.944522l0,5.833565c0,1.073376 0.876472,1.944522 1.95641,1.944522l5.869229,0c1.079938,0 1.95641,-0.871146 1.95641,-1.944522s-0.876472,-1.944522 -1.95641,-1.944522l-1.173846,0l4.499743,-4.473372c0.313026,-0.311123 0.586923,-0.72239 0.586923,-1.360193c0,-1.063653 -0.840278,-1.944522 -1.95641,-1.944522z"/>
  <path stroke="null" fill="#ffffff" id="svg_2" d="m41.30295,-11.092925l-5.869229,0c-1.079939,0 -1.95641,0.871145 -1.95641,1.944521s0.876471,1.944522 1.95641,1.944522l1.173845,0l-4.499742,4.473372c-0.313026,0.311123 -0.586923,0.722389 -0.586923,1.360192c0,1.063654 0.840278,1.944522 1.95641,1.944522c0.627029,0 1.026137,-0.241121 1.369487,-0.583357l4.499742,-4.472399l0,1.166713c0,1.073376 0.876472,1.944521 1.95641,1.944521s1.95641,-0.871145 1.95641,-1.944521l0,-5.833565c0,-1.073376 -0.876472,-1.944521 -1.95641,-1.944521zm-15.651279,15.556172c-0.627029,0 -1.026137,0.241121 -1.369486,0.583356l-4.499743,4.4724l0,-1.166713c0,-1.073376 -0.876472,-1.944521 -1.95641,-1.944521s-1.95641,0.871145 -1.95641,1.944521l0,5.833565c0,1.073376 0.876472,1.944521 1.95641,1.944521l5.86923,0c1.079938,0 1.956409,-0.871145 1.956409,-1.944521s-0.876471,-1.944522 -1.956409,-1.944522l-1.173846,0l4.499742,-4.473372c0.313026,-0.311123 0.586923,-0.722389 0.586923,-1.360192c0,-1.063654 -0.840278,-1.944522 -1.95641,-1.944522z"/>
 </g>
</svg>