<svg viewBox="0 0 64 64" xmlns="http://www.w3.org/2000/svg"><g data-name="02_Online Learnning"><path d="M8 10h52a2 2 0 0 1 2 2v30H6V12a2 2 0 0 1 2-2Z" fill="#ceddeb" class="fill-fdfeff fill-87a7c7"></path><path d="M10 10H8a2 2 0 0 0-2 2v30h2V12a2 2 0 0 1 2-2Z" fill="#405b66" class="fill-c3d6dd fill-405b66"></path><path d="M53 36H15a3 3 0 0 1-3-3V8a2 2 0 0 1 2-2h40a2 2 0 0 1 2 2v25a3 3 0 0 1-3 3Z" fill="#801212" class="fill-03a65a fill-801212"></path><path d="M15.151 33.362A3.011 3.011 0 0 0 17 34a3.077 3.077 0 0 0 .727-.089 32.11 32.11 0 0 1 14.673-.194l.944.21A2.96 2.96 0 0 0 34 34a2.891 2.891 0 0 0 .65-.072l.951-.211a32.078 32.078 0 0 1 14.672.194 3 3 0 0 0 2.572-.546A2.979 2.979 0 0 0 54 31V6h-1v25a1.983 1.983 0 0 1-.77 1.576A2 2 0 0 1 51 33a1.976 1.976 0 0 1-.485-.06 33.087 33.087 0 0 0-15.131-.2l-.95.211A1.957 1.957 0 0 1 34 33a2.02 2.02 0 0 1-.438-.048l-.946-.211a33.124 33.124 0 0 0-15.131.2A2 2 0 0 1 15 31V6h-1v25a2.976 2.976 0 0 0 1.151 2.362Z" fill="#405b66" class="fill-c3d6dd fill-405b66"></path><path d="M15 31a1.984 1.984 0 0 0 .768 1.575 2 2 0 0 0 1.717.365 33.124 33.124 0 0 1 15.131-.2l.946.211A2.02 2.02 0 0 0 34 33a1.957 1.957 0 0 0 .434-.048l.95-.211a33.087 33.087 0 0 1 15.131.2A1.976 1.976 0 0 0 51 33a2 2 0 0 0 1.23-.424A1.983 1.983 0 0 0 53 31V4H15Z" fill="#0f2e3d" class="fill-dfeaef fill-0f2e3d"></path><path d="M51 32a1 1 0 0 1-.243-.03 34.1 34.1 0 0 0-15.59-.2l-.95.211a.993.993 0 0 1-.434 0l-.95-.211a34.113 34.113 0 0 0-15.59.2A1 1 0 0 1 16 31V4a1 1 0 0 1 .757-.97 36.085 36.085 0 0 1 16.51-.217l.733.163.733-.163a36.085 36.085 0 0 1 16.51.217A1 1 0 0 1 52 4v27a1 1 0 0 1-1 1Z" fill="#ceddeb" class="fill-fdfeff fill-87a7c7"></path><path d="M20 10h11v2H20zM20 14h11v2H20zM20 18h11v2H20zM20 22h11v2H20zM37 10h11v2H37zM37 14h11v2H37zM37 18h11v2H37zM37 22h11v2H37z" fill="#112e4f" class="fill-d6e8f2 fill-112e4f"></path><path d="M40 56H28a1 1 0 0 1-1-1v-7a1 1 0 0 1 1-1h12a1 1 0 0 1 1 1v7a1 1 0 0 1-1 1Z" fill="#0f2e3d" class="fill-dfeaef fill-0f2e3d"></path><path d="M29 55v-7a1 1 0 0 1 1-1h-2a1 1 0 0 0-1 1v7a1 1 0 0 0 1 1h2a1 1 0 0 1-1-1Z" fill="#405b66" class="fill-c3d6dd fill-405b66"></path><path d="M50 62H18a1 1 0 0 1-1-1 7.008 7.008 0 0 1 7-7h20a7.008 7.008 0 0 1 7 7 1 1 0 0 1-1 1Z" fill="#0d96b8" class="fill-0455bf fill-0d96b8"></path><path d="M19 61a7.008 7.008 0 0 1 7-7h-2a7.008 7.008 0 0 0-7 7 1 1 0 0 0 1 1h2a1 1 0 0 1-1-1Z" fill="#05576b" class="fill-004787 fill-05576b"></path><path d="M6 42h56v4a2 2 0 0 1-2 2H8a2 2 0 0 1-2-2v-4Z" fill="#0d96b8" class="fill-0455bf fill-0d96b8"></path><path d="M8 46v-4H6v4a2 2 0 0 0 2 2h2a2 2 0 0 1-2-2Z" fill="#05576b" class="fill-004787 fill-05576b"></path><circle cx="34" cy="45" r="1" fill="#d6d01e" class="fill-febc00 fill-d6d01e"></circle></g></svg>