<svg width="32" height="32" xmlns="http://www.w3.org/2000/svg">

 <g>
  <title>background</title>
  <rect fill="none" id="canvas_background" height="402" width="582" y="-1" x="-1"/>
 </g>
 <g>
  <title>Layer 1</title>
  <path id="svg_1" fill="#ffffff" d="m27.704,7.19l-6.998,-6.9c-0.389,-0.385 -1.04,-0.389 -1.429,0l-6.999,6.9c-0.395,0.391 -0.394,1.024 0,1.414c0.394,0.391 1.034,0.391 1.428,0l5.275,-5.2l0,15.593c0,0.552 0.452,1 1.01,1c0.558,0 1.01,-0.448 1.01,-1l0,-15.593l5.275,5.2c0.395,0.391 1.034,0.391 1.428,0c0.395,-0.391 0.395,-1.024 0,-1.414z"/>
  <path id="svg_2" fill="#ffffff" d="m18.294,23.396l-5.275,5.2l0,-15.593c0,-0.552 -0.452,-1 -1.01,-1c-0.558,0 -1.01,0.448 -1.01,1l0,15.593l-5.275,-5.2c-0.395,-0.391 -1.034,-0.391 -1.428,0c-0.395,0.391 -0.395,1.024 0,1.414l6.999,6.899c0.389,0.385 1.04,0.389 1.429,0l6.999,-6.9c0.395,-0.391 0.394,-1.024 0,-1.414c-0.395,-0.389 -1.035,-0.39 -1.429,0.001z"/>
 </g>
</svg>