<?xml version="1.0" encoding="utf-8"?>
<svg xmlns="http://www.w3.org/2000/svg" xmlns:xlink="http://www.w3.org/1999/xlink" style="margin: auto; background: rgba(0, 0, 0, 0) none repeat scroll 0% 0%; display: block; shape-rendering: auto;" width="177px" height="177px" viewBox="0 0 100 100" preserveAspectRatio="xMidYMid">
<g transform="rotate(0 50 50)">
  <rect x="46.5" y="2.5" rx="3.5" ry="11.5" width="7" height="23" fill="#125f66">
    <animate attributeName="opacity" values="1;0" keyTimes="0;1" dur="0.7092198581560283s" begin="-0.6698187549251379s" repeatCount="indefinite"></animate>
  </rect>
</g><g transform="rotate(20 50 50)">
  <rect x="46.5" y="2.5" rx="3.5" ry="11.5" width="7" height="23" fill="#125f66">
    <animate attributeName="opacity" values="1;0" keyTimes="0;1" dur="0.7092198581560283s" begin="-0.6304176516942473s" repeatCount="indefinite"></animate>
  </rect>
</g><g transform="rotate(40 50 50)">
  <rect x="46.5" y="2.5" rx="3.5" ry="11.5" width="7" height="23" fill="#125f66">
    <animate attributeName="opacity" values="1;0" keyTimes="0;1" dur="0.7092198581560283s" begin="-0.5910165484633569s" repeatCount="indefinite"></animate>
  </rect>
</g><g transform="rotate(60 50 50)">
  <rect x="46.5" y="2.5" rx="3.5" ry="11.5" width="7" height="23" fill="#125f66">
    <animate attributeName="opacity" values="1;0" keyTimes="0;1" dur="0.7092198581560283s" begin="-0.5516154452324664s" repeatCount="indefinite"></animate>
  </rect>
</g><g transform="rotate(80 50 50)">
  <rect x="46.5" y="2.5" rx="3.5" ry="11.5" width="7" height="23" fill="#125f66">
    <animate attributeName="opacity" values="1;0" keyTimes="0;1" dur="0.7092198581560283s" begin="-0.512214342001576s" repeatCount="indefinite"></animate>
  </rect>
</g><g transform="rotate(100 50 50)">
  <rect x="46.5" y="2.5" rx="3.5" ry="11.5" width="7" height="23" fill="#125f66">
    <animate attributeName="opacity" values="1;0" keyTimes="0;1" dur="0.7092198581560283s" begin="-0.47281323877068554s" repeatCount="indefinite"></animate>
  </rect>
</g><g transform="rotate(120 50 50)">
  <rect x="46.5" y="2.5" rx="3.5" ry="11.5" width="7" height="23" fill="#125f66">
    <animate attributeName="opacity" values="1;0" keyTimes="0;1" dur="0.7092198581560283s" begin="-0.4334121355397951s" repeatCount="indefinite"></animate>
  </rect>
</g><g transform="rotate(140 50 50)">
  <rect x="46.5" y="2.5" rx="3.5" ry="11.5" width="7" height="23" fill="#125f66">
    <animate attributeName="opacity" values="1;0" keyTimes="0;1" dur="0.7092198581560283s" begin="-0.3940110323089046s" repeatCount="indefinite"></animate>
  </rect>
</g><g transform="rotate(160 50 50)">
  <rect x="46.5" y="2.5" rx="3.5" ry="11.5" width="7" height="23" fill="#125f66">
    <animate attributeName="opacity" values="1;0" keyTimes="0;1" dur="0.7092198581560283s" begin="-0.35460992907801414s" repeatCount="indefinite"></animate>
  </rect>
</g><g transform="rotate(180 50 50)">
  <rect x="46.5" y="2.5" rx="3.5" ry="11.5" width="7" height="23" fill="#125f66">
    <animate attributeName="opacity" values="1;0" keyTimes="0;1" dur="0.7092198581560283s" begin="-0.3152088258471237s" repeatCount="indefinite"></animate>
  </rect>
</g><g transform="rotate(200 50 50)">
  <rect x="46.5" y="2.5" rx="3.5" ry="11.5" width="7" height="23" fill="#125f66">
    <animate attributeName="opacity" values="1;0" keyTimes="0;1" dur="0.7092198581560283s" begin="-0.2758077226162332s" repeatCount="indefinite"></animate>
  </rect>
</g><g transform="rotate(220 50 50)">
  <rect x="46.5" y="2.5" rx="3.5" ry="11.5" width="7" height="23" fill="#125f66">
    <animate attributeName="opacity" values="1;0" keyTimes="0;1" dur="0.7092198581560283s" begin="-0.23640661938534277s" repeatCount="indefinite"></animate>
  </rect>
</g><g transform="rotate(240 50 50)">
  <rect x="46.5" y="2.5" rx="3.5" ry="11.5" width="7" height="23" fill="#125f66">
    <animate attributeName="opacity" values="1;0" keyTimes="0;1" dur="0.7092198581560283s" begin="-0.1970055161544523s" repeatCount="indefinite"></animate>
  </rect>
</g><g transform="rotate(260 50 50)">
  <rect x="46.5" y="2.5" rx="3.5" ry="11.5" width="7" height="23" fill="#125f66">
    <animate attributeName="opacity" values="1;0" keyTimes="0;1" dur="0.7092198581560283s" begin="-0.15760441292356184s" repeatCount="indefinite"></animate>
  </rect>
</g><g transform="rotate(280 50 50)">
  <rect x="46.5" y="2.5" rx="3.5" ry="11.5" width="7" height="23" fill="#125f66">
    <animate attributeName="opacity" values="1;0" keyTimes="0;1" dur="0.7092198581560283s" begin="-0.11820330969267138s" repeatCount="indefinite"></animate>
  </rect>
</g><g transform="rotate(300 50 50)">
  <rect x="46.5" y="2.5" rx="3.5" ry="11.5" width="7" height="23" fill="#125f66">
    <animate attributeName="opacity" values="1;0" keyTimes="0;1" dur="0.7092198581560283s" begin="-0.07880220646178092s" repeatCount="indefinite"></animate>
  </rect>
</g><g transform="rotate(320 50 50)">
  <rect x="46.5" y="2.5" rx="3.5" ry="11.5" width="7" height="23" fill="#125f66">
    <animate attributeName="opacity" values="1;0" keyTimes="0;1" dur="0.7092198581560283s" begin="-0.03940110323089046s" repeatCount="indefinite"></animate>
  </rect>
</g><g transform="rotate(340 50 50)">
  <rect x="46.5" y="2.5" rx="3.5" ry="11.5" width="7" height="23" fill="#125f66">
    <animate attributeName="opacity" values="1;0" keyTimes="0;1" dur="0.7092198581560283s" begin="0s" repeatCount="indefinite"></animate>
  </rect>
</g>
<!-- [ldio] generated by https://loading.io/ --></svg>