<svg width="512" height="512" xmlns="http://www.w3.org/2000/svg" xmlns:xlink="http://www.w3.org/1999/xlink">
 <g>
  <title>background</title>
  <rect fill="none" id="canvas_background" height="402" width="582" y="-1" x="-1"/>
 </g>
 <g>
  <title>Layer 1</title>
  <circle stroke="null" id="svg_2" r="167.300003" fill="#2a6e99" cy="296.112344" cx="255.112344"/>
  <path id="svg_14" fill="#7e7f7f" d="m247.8,455c-25.6,2 -49.8,-4.5 -69.3,-17c10.3,33.1 41.1,57.1 77.5,57.1c44.8,0 81.2,-36.3 81.2,-81.2c0,-4.8 -0.4,-9.5 -1.2,-14c-16.8,30.2 -49.3,52.1 -88.2,55.1z" clip-path="url(#SVGID_6_)"/>
  <circle id="svg_11" r="81.2" fill="#FFFFFF" cy="414.2" cx="256" clip-path="url(#SVGID_4_)"/>
  <circle id="svg_7" r="56.6" fill="#FFFFFF" cy="262" cx="175.9" clip-path="url(#SVGID_2_)"/>
  <circle id="svg_18" r="6.6" fill="#62B446" cy="281.6" cx="178.9"/>
  <path id="svg_17" fill="#62B446" d="m156.6,246.7l6.3,5.5c0,0 3.3,-4.4 8.4,-5.6s5.9,3.1 6.4,5.1c0.5,2 -3.5,7.5 -5.6,10.2s-0.3,6.3 0.2,8.1c0.4,1.8 0.9,3.4 0.9,3.4l8.3,-2.1c0,0 -0.8,-3.7 -1.2,-5.3c-0.4,-1.6 5.1,-5.2 7.1,-11.1c2.1,-5.8 0.5,-15 -8.5,-17.2c-9.2,-2.2 -18.9,4.4 -22.3,9z"/>
  <path id="svg_8" fill="#777777" d="m213.9,220.2c5.9,9 9.4,19.7 9.4,31.2c0,31.2 -25.3,56.6 -56.6,56.6c-14.7,0 -28,-5.6 -38.1,-14.7c10.1,15.3 27.5,25.3 47.2,25.3c31.2,0 56.6,-25.3 56.6,-56.6c0,-16.6 -7.1,-31.5 -18.5,-41.8z"/>
  <circle id="svg_3" r="96.7" fill="#FFFFFF" cy="182.2" cx="359.6"/>
  <path id="svg_4" fill="#777777" d="m442.7,231.8c8.7,-14.5 13.6,-31.4 13.6,-49.5c0,-31 -14.7,-58.6 -37.4,-76.3c14.7,16.8 23.7,38.8 23.7,62.9c0,52.7 -42.7,95.4 -95.4,95.4c-26.2,0 -50,-10.6 -67.2,-27.7c17.4,25.5 46.6,42.3 79.8,42.3c19.7,0 37.9,-5.9 53.2,-16c5.8,1.2 21.2,4.3 26.1,5.1c6.1,0.9 11.7,-2.1 9.6,-12c-1.6,-6.9 -4.4,-18 -6,-24.2z"/>
  <defs>
   <circle r="56.6" id="SVGID_1_" cy="251.4" cx="166.8"/>
  </defs>
  <clipPath id="SVGID_2_">
   <use id="svg_6" xlink:href="#SVGID_1_"/>
  </clipPath>
  <defs>
   <ellipse transform="matrix(0.997,-0.07774328,0.07774328,0.997,-26.8791,19.7309) " ry="100.5" rx="108" id="SVGID_3_" cy="355.1" cx="240"/>
  </defs>
  <clipPath id="SVGID_4_">
   <use id="svg_10" xlink:href="#SVGID_3_"/>
  </clipPath>
  <defs>
   <circle r="167.3" id="SVGID_5_" cy="297" cx="256"/>
  </defs>
  <clipPath id="SVGID_6_">
   <use id="svg_13" xlink:href="#SVGID_5_"/>
  </clipPath>
  <circle id="svg_16" r="13.9" fill="#62B446" cy="222.4" cx="349.6"/>
  <path id="svg_15" fill="#62B446" d="m337.5,135.2l7.2,16.2c0,0 10.2,-5.5 21.3,-3.4c11.1,2.1 8.7,11.2 7.9,15.5s-13.5,11.4 -19.8,14.8c-6.3,3.4 -6.1,12 -6.8,15.8c-0.7,3.8 -1.4,7.4 -1.4,7.4l17.8,3.4c0,0 1.7,-7.9 2.4,-11.3s14.4,-5.6 23.6,-15s14.3,-28.5 -1.2,-40.9c-15.7,-12.4 -40.3,-8.3 -51,-2.5z"/>
  <path id="svg_19" fill="#62B446" d="m241.3,370.5l5.9,12.9c0,0 8.1,-4.5 17,-3c8.9,1.6 7.1,8.9 6.5,12.3c-0.6,3.4 -10.7,9.3 -15.7,12.1c-5,2.8 -4.7,9.6 -5.3,12.7c-0.5,3 -1,5.9 -1,5.9l14.3,2.5c0,0 1.3,-6.3 1.8,-9.1s11.5,-4.7 18.7,-12.3c7.3,-7.6 11.2,-23 -1.4,-32.7s-32.3,-6.1 -40.8,-1.3z"/>
  <circle id="svg_20" r="11.2" fill="#62B446" cy="440.2" cx="252"/>
 </g>
</svg>