<svg width="1200" height="1200" xmlns="http://www.w3.org/2000/svg">
 <metadata>Svg Vector Icons : http://www.onlinewebfonts.com/icon</metadata>

 <g>
  <title>background</title>
  <rect fill="none" id="canvas_background" height="1202" width="1202" y="-1" x="-1"/>
 </g>
 <g>
  <title>Layer 1</title>
  <path stroke="null" style="vector-effect: non-scaling-stroke;" fill="#442202" id="svg_8" d="m829.378518,523.010017c-164.373427,0 -297.523822,131.019297 -297.523822,292.761896s133.150395,292.761896 297.523822,292.761896c164.373427,0 297.523822,-131.019297 297.523822,-292.761896c0,-161.742599 -133.150395,-292.761896 -297.523822,-292.761896zm171.952931,412.872195c0,43.635994 -85.07145,53.654462 -164.939062,53.654462c-79.867611,0 -166.070331,-10.018468 -166.070331,-53.654462l0,-12.133478c0,-32.170414 58.93913,-64.786093 108.941232,-82.485386c3.733189,-1.224479 21.041609,-10.686366 11.312693,-35.621219c-24.887924,-24.934853 -43.553867,-65.45399 -43.553867,-105.30523c0,-60.890022 40.951948,-92.949119 89.030893,-92.949119c47.852691,0 89.257147,31.947781 89.257147,92.949119c0,39.628606 -18.892197,79.925111 -43.553867,105.082597l0.226254,0c-9.502662,28.385659 5.656346,35.175954 8.032012,35.843852c52.604022,17.031395 111.769405,49.424442 111.769405,82.485386l-0.452508,12.133478l0,0z"/>
  <path stroke="null" fill="#ffffff" id="svg_4" d="m830.074469,542.497201c-150.511003,0 -272.432166,122.33101 -272.432166,273.347967s121.921163,273.347967 272.432166,273.347967c150.511003,0 272.432166,-122.33101 272.432166,-273.347967c0,-151.016957 -121.921163,-273.347967 -272.432166,-273.347967zm157.45129,385.493388c0,40.742359 -77.896954,50.096472 -151.028934,50.096472c-73.131981,0 -152.064798,-9.354113 -152.064798,-50.096472l0,-11.32887c0,-30.037096 53.968501,-60.48993 99.753679,-77.01553c3.41835,-1.14328 19.267066,-9.97772 10.358637,-33.259068c-22.789002,-23.281348 -39.880754,-61.113538 -39.880754,-98.322121c0,-56.85222 37.498268,-86.785381 81.522477,-86.785381c43.817037,0 81.72965,29.829227 81.72965,86.785381c0,37.000713 -17.298925,74.625034 -39.880754,98.114251l0.207173,0c-8.701255,26.50332 5.179319,32.84333 7.354633,33.466937c48.167664,15.901992 102.343338,46.146957 102.343338,77.01553l-0.414345,11.32887l0,0z"/>
  <path stroke="null" fill="#6b3e12" id="svg_9" d="m831.759448,565.867151c-139.380666,0 -252.28572,112.372279 -252.28572,251.095236s112.905054,251.095236 252.28572,251.095236c139.380666,0 252.28572,-112.372279 252.28572,-251.095236c0,-138.722958 -112.905054,-251.095236 -252.28572,-251.095236zm145.807716,354.111115c0,37.425602 -72.136449,46.018214 -139.860296,46.018214c-67.723847,0 -140.819558,-8.592613 -140.819558,-46.018214l0,-10.406609c0,-27.591834 49.977513,-55.565562 92.376862,-70.745844c3.165562,-1.050208 17.84226,-9.165453 9.592613,-30.551512c-21.103748,-21.386058 -36.93156,-56.138403 -36.93156,-90.317906c0,-52.22399 34.725259,-79.720351 75.493864,-79.720351c40.576753,0 75.685716,27.400887 75.685716,79.720351c0,33.988557 -16.019664,68.549954 -36.93156,90.126959l0.191852,0c-8.057795,24.345736 4.796306,30.169618 6.810755,30.742459c44.60565,14.607442 94.775016,42.390222 94.775016,70.745844l-0.383705,10.406609l0,0z"/>
  <path stroke="null" fill="#6b3e12" id="svg_11" d="m694.013652,497.138222c40.8,-17.2 83.8,-26 128.4,-26c4.4,0 8.8,0.2 13.2,0.2c20.9,-52.8 26.2,-115.2 15.7,-175.9c-24.2,-139.2 -155.5,-232.2 -293.5,-207.7c-137.9,24.5 -254.2,131.7 -229.7,270.8c5.2,30.1 19.7,76.9 36.9,110.8l-250.3,361.2c-9.2,13.2 -14.5,37.1 -11.7,53.4l10.9,61.8c-10.3,-59.5 2.9,21.4 10.9,21.2l82.5,1.1c15.9,-2.9 35.8,-16.3 44.6,-29.9l99,-154.8l1,-1l86.5,6.9l115.6,-181.3c0.4,0 0.8,0.2 1.1,0.2c10.3,-14.2 21.6,-27.6 34.3,-40.2c30,-30.4 65.4,-54.2 104.6,-70.8zm-525.2,371.5l-12.3,5.2l1.3,-13.4l239.8,-348.2l14.4,13.4l-243.2,343zm364.5,-640.6c37.9,-54.6 112.5,-68.1 166.5,-29.7c54.2,38.5 67.4,113.9 29.5,168.4c-37.9,54.5 -76.6,16.1 -130.7,-22.2c-54.1,-38.4 -103.2,-61.8 -65.3,-116.5z"/>
 </g>
</svg>