<svg viewBox="0 0 24 24" xmlns="http://www.w3.org/2000/svg"><defs><linearGradient gradientUnits="userSpaceOnUse" id="a" x1="18.894" x2="18.894" y1="15.287" y2="22.614"><stop offset="0" stop-color="#171833" class="stop-color-5d5c66"></stop><stop offset="1" stop-color="#0a3863" class="stop-color-48474f"></stop></linearGradient><linearGradient gradientUnits="userSpaceOnUse" id="b" x1="9.998" x2="9.998" y1="1.149" y2="18.652"><stop offset="0" stop-color="#37c0e6" class="stop-color-a6f9ff"></stop><stop offset="1" stop-color="#a6f9ff" class="stop-color-3ed0f7"></stop></linearGradient></defs><path d="m17.607 14.79 4.8 4.8a1.994 1.994 0 0 1-2.82 2.82l-4.8-4.8Z" fill="url(#a)" class="fillurl(-a)"></path><circle cx="9.998" cy="10" r="9" fill="url(#b)" class="fillurl(-b)"></circle><path d="M5 11a1 1 0 0 1-1-1 6.006 6.006 0 0 1 6-6 1 1 0 0 1 0 2 4 4 0 0 0-4 4 1 1 0 0 1-1 1Z" fill="#cffeff" class="fill-cffeff"></path></svg>