<svg width="999.9999999999999" height="999.9999999999999" xmlns="http://www.w3.org/2000/svg">
 <metadata>Svg Vector Icons : http://www.onlinewebfonts.com/icon</metadata>

 <g>
  <title>background</title>
  <rect fill="none" id="canvas_background" height="402" width="582" y="-1" x="-1"/>
 </g>
 <g>
  <title>Layer 1</title>
  <path fill="#420d42" id="svg_2" d="m799.4,99.1c-9.9,-6.4 -22.4,-7.3 -33.2,-2.5l-19.7,8.9l-103.4,-48.6c3.2,-8.5 3.1,-18.2 -1.1,-27c-8.2,-17.3 -29,-24.7 -46.3,-16.5l-391,185.1c-12.1,5.7 -19.9,18 -19.9,31.4l0,656.7c0,13.5 7.8,25.8 20,31.5l146.2,68.6c4.7,2.2 9.7,3.3 14.8,3.3c4.7,0 9.6,-1 14,-2.9l414.7,-182.1c12.6,-5.5 20.8,-18 20.8,-31.8l0,-644.8c0,-11.8 -6,-22.8 -15.9,-29.3zm-53.7,651.3l-379.4,166.6l-112,-52.5l0,-558.6l86.7,44.5c9.4,4.8 20.5,5.1 30.1,0.7l374.6,-168.9l0,568.2l0,0z"/>
  <path fill="#0e021c" id="svg_3" d="m679.9,680.451852l-195,0c-7.4,0 -13.4,6 -13.4,13.4s6,13.4 13.4,13.4l195,0c7.4,0 13.4,-6 13.4,-13.4s-6,-13.4 -13.4,-13.4z"/>
  <path fill="#0e021c" id="svg_4" d="m679.9,574.8l-195,0c-7.4,0 -13.4,6 -13.4,13.4s6,13.4 13.4,13.4l195,0c7.4,0 13.4,-6 13.4,-13.4s-6,-13.4 -13.4,-13.4z"/>
  <path fill="#0e021c" id="svg_5" d="m484.9,497.7l195,0c7.4,0 13.4,-6 13.4,-13.4c0,-7.4 -6,-13.4 -13.4,-13.4l-195,0c-7.4,0 -13.4,6 -13.4,13.4c0,7.4 6,13.4 13.4,13.4z"/>
  <path fill="#0e021c" id="svg_6" d="m422.1,454.3l-33.2,0c-7.4,0 -13.4,6 -13.4,13.4l0,33.2c0,7.4 6,13.4 13.4,13.4l33.2,0c7.4,0 13.4,-6 13.4,-13.4l0,-33.2c0,-7.4 -6,-13.4 -13.4,-13.4z"/>
  <path fill="#0e021c" id="svg_7" d="m422.1,558.2l-33.2,0c-7.4,0 -13.4,6 -13.4,13.4l0,33.2c0,7.4 6,13.4 13.4,13.4l33.2,0c7.4,0 13.4,-6 13.4,-13.4l0,-33.2c0,-7.4 -6,-13.4 -13.4,-13.4z"/>
  <path fill="#0e021c" id="svg_8" d="m422.1,662l-33.2,0c-7.4,0 -13.4,6 -13.4,13.4l0,33.2c0,7.4 6,13.4 13.4,13.4l33.2,0c7.4,0 13.4,-6 13.4,-13.4l0,-33.2c0,-7.4 -6,-13.4 -13.4,-13.4z"/>
 </g>
</svg>