<svg width="32" height="32" xmlns="http://www.w3.org/2000/svg">

 <g>
  <title>background</title>
  <rect fill="none" id="canvas_background" height="402" width="582" y="-1" x="-1"/>
 </g>
 <g>
  <title>Layer 1</title>
  <path stroke="null" fill="#ffffff" id="svg_1" d="m25.919558,4.274614l-5.750347,0c-1.058064,0 -1.916782,0.855168 -1.916782,1.908857s0.858718,1.908857 1.916782,1.908857l1.150069,0l-4.408599,4.391325c-0.306685,0.305417 -0.575035,0.70914 -0.575035,1.335245c0,1.044145 0.823258,1.908857 1.916782,1.908857c0.614329,0 1.005352,-0.236698 1.341748,-0.572657l4.408599,-4.390371l0,1.145314c0,1.053689 0.858718,1.908857 1.916782,1.908857s1.916782,-0.855168 1.916782,-1.908857l0,-5.726571c0,-1.053689 -0.858718,-1.908857 -1.916782,-1.908857zm-15.334258,15.270855c-0.614329,0 -1.005352,0.236698 -1.341748,0.572657l-4.408599,4.390371l0,-1.145314c0,-1.053689 -0.858718,-1.908857 -1.916782,-1.908857s-1.916782,0.855168 -1.916782,1.908857l0,5.726571c0,1.053689 0.858718,1.908857 1.916782,1.908857l5.750347,0c1.058064,0 1.916782,-0.855168 1.916782,-1.908857s-0.858718,-1.908857 -1.916782,-1.908857l-1.150069,0l4.408599,-4.391325c0.306685,-0.305417 0.575035,-0.70914 0.575035,-1.335245c0,-1.044145 -0.823258,-1.908857 -1.916782,-1.908857z"/>
 </g>
</svg>